<?xml version="1.0" encoding="utf-8"?>
<svg version="1.1" xmlns:xlink="http://www.w3.org/1999/xlink" xmlns:papercraft="https://x39.solutions/papercraft" width="755.905518" height="566.929138" viewBox="0 0 755.905518 566.929138" role="img" xmlns="http://www.w3.org/2000/svg">
  <title>Papercraft SVG document</title>
  <metadata>
    <papercraft:document renderer="svg" media-type="image/svg+xml" pages="1" modified="2026-06-11T17:43:01.7636782Z" />
  </metadata>
  <!--Papercraft SVG backend output. Pages: 1. Pages are stacked vertically.-->
  <!--Page 1 of 1-->
  <defs>
    <clipPath id="papercraft-clip-1" clipPathUnits="userSpaceOnUse">
      <rect x="0" y="0" width="755.905518" height="566.929138" />
    </clipPath>
  </defs>
  <g id="page-1" data-page-index="0" data-page-number="1">
    <g clip-path="url(#papercraft-clip-1)">
      <g>
        <g>
          <defs>
            <clipPath id="papercraft-clip-2" clipPathUnits="userSpaceOnUse">
              <rect x="0" y="0" width="755.905518" height="566.929138" />
            </clipPath>
          </defs>
          <g clip-path="url(#papercraft-clip-2)">
            <g />
          </g>
        </g>
        <g>
          <g>
            <defs>
              <clipPath id="papercraft-clip-3" clipPathUnits="userSpaceOnUse">
                <rect x="37.7952957" y="37.7952957" width="680.314941" height="0" />
              </clipPath>
            </defs>
            <g clip-path="url(#papercraft-clip-3)">
              <g />
            </g>
          </g>
          <g>
            <defs>
              <clipPath id="papercraft-clip-4" clipPathUnits="userSpaceOnUse">
                <rect x="37.7952957" y="37.7952957" width="680.314941" height="491.338562" />
              </clipPath>
            </defs>
            <g clip-path="url(#papercraft-clip-4)">
              <g>
                <g>
                  <defs>
                    <clipPath id="papercraft-clip-5" clipPathUnits="userSpaceOnUse">
                      <rect x="37.7952957" y="37.7952957" width="181.417419" height="181.417419" />
                    </clipPath>
                  </defs>
                  <g clip-path="url(#papercraft-clip-5)">
                    <rect x="57.4079895" y="57.4079895" width="34.3222122" height="4.90317345" fill="#000000" />
                    <rect x="96.6333771" y="57.4079895" width="4.90317345" height="4.90317345" fill="#000000" />
                    <rect x="106.43972" y="57.4079895" width="4.90317345" height="9.80634689" fill="#000000" />
                    <rect x="121.149246" y="57.4079895" width="14.7095203" height="4.90317345" fill="#000000" />
                    <rect x="150.568283" y="57.4079895" width="4.90317345" height="4.90317345" fill="#000000" />
                    <rect x="165.277802" y="57.4079895" width="34.3222122" height="4.90317345" fill="#000000" />
                    <rect x="57.4079895" y="62.3111649" width="4.90317345" height="29.4190407" fill="#000000" />
                    <rect x="86.8270264" y="62.3111649" width="4.90317345" height="29.4190407" fill="#000000" />
                    <rect x="111.342896" y="62.3111649" width="9.80634689" height="4.90317345" fill="#000000" />
                    <rect x="130.955597" y="62.3111649" width="9.80634689" height="4.90317345" fill="#000000" />
                    <rect x="145.6651" y="62.3111649" width="4.90317345" height="4.90317345" fill="#000000" />
                    <rect x="155.471466" y="62.3111649" width="4.90317345" height="9.80634689" fill="#000000" />
                    <rect x="165.277802" y="62.3111649" width="4.90317345" height="29.4190407" fill="#000000" />
                    <rect x="194.696838" y="62.3111649" width="4.90317345" height="29.4190407" fill="#000000" />
                    <rect x="67.2143402" y="67.2143402" width="14.7095203" height="14.7095203" fill="#000000" />
                    <rect x="101.536552" y="67.2143402" width="4.90317345" height="4.90317345" fill="#000000" />
                    <rect x="116.246071" y="67.2143402" width="9.80634689" height="4.90317345" fill="#000000" />
                    <rect x="150.568283" y="67.2143402" width="4.90317345" height="14.7095203" fill="#000000" />
                    <rect x="175.084137" y="67.2143402" width="14.7095203" height="14.7095203" fill="#000000" />
                    <rect x="106.43972" y="72.1175079" width="4.90317345" height="24.5158672" fill="#000000" />
                    <rect x="126.052422" y="72.1175079" width="4.90317345" height="4.90317345" fill="#000000" />
                    <rect x="140.761932" y="72.1175079" width="4.90317345" height="4.90317345" fill="#000000" />
                    <rect x="96.6333771" y="77.0206833" width="4.90317345" height="14.7095203" fill="#000000" />
                    <rect x="101.536552" y="77.0206833" width="4.90317345" height="4.90317345" fill="#000000" />
                    <rect x="121.149246" y="77.0206833" width="4.90317345" height="9.80634689" fill="#000000" />
                    <rect x="130.955597" y="77.0206833" width="4.90317345" height="9.80634689" fill="#000000" />
                    <rect x="145.6651" y="77.0206833" width="4.90317345" height="14.7095203" fill="#000000" />
                    <rect x="155.471466" y="77.0206833" width="4.90317345" height="4.90317345" fill="#000000" />
                    <rect x="111.342896" y="81.9238586" width="4.90317345" height="4.90317345" fill="#000000" />
                    <rect x="126.052422" y="81.9238586" width="4.90317345" height="14.7095203" fill="#000000" />
                    <rect x="135.858765" y="81.9238586" width="4.90317345" height="14.7095203" fill="#000000" />
                    <rect x="62.3111649" y="86.8270264" width="24.5158672" height="4.90317345" fill="#000000" />
                    <rect x="116.246071" y="86.8270264" width="4.90317345" height="4.90317345" fill="#000000" />
                    <rect x="155.471466" y="86.8270264" width="4.90317345" height="4.90317345" fill="#000000" />
                    <rect x="170.180969" y="86.8270264" width="24.5158672" height="4.90317345" fill="#000000" />
                    <rect x="101.536552" y="91.7302017" width="4.90317345" height="4.90317345" fill="#000000" />
                    <rect x="121.149246" y="91.7302017" width="4.90317345" height="9.80634689" fill="#000000" />
                    <rect x="130.955597" y="91.7302017" width="4.90317345" height="19.6126938" fill="#000000" />
                    <rect x="62.3111649" y="96.6333771" width="9.80634689" height="19.6126938" fill="#000000" />
                    <rect x="72.1175079" y="96.6333771" width="24.5158672" height="4.90317345" fill="#000000" />
                    <rect x="111.342896" y="96.6333771" width="9.80634689" height="4.90317345" fill="#000000" />
                    <rect x="140.761932" y="96.6333771" width="14.7095203" height="4.90317345" fill="#000000" />
                    <rect x="170.180969" y="96.6333771" width="4.90317345" height="24.5158672" fill="#000000" />
                    <rect x="175.084137" y="96.6333771" width="4.90317345" height="9.80634689" fill="#000000" />
                    <rect x="194.696838" y="96.6333771" width="4.90317345" height="9.80634689" fill="#000000" />
                    <rect x="91.7302017" y="101.536552" width="4.90317345" height="4.90317345" fill="#000000" />
                    <rect x="101.536552" y="101.536552" width="14.7095203" height="4.90317345" fill="#000000" />
                    <rect x="135.858765" y="101.536552" width="9.80634689" height="4.90317345" fill="#000000" />
                    <rect x="150.568283" y="101.536552" width="4.90317345" height="4.90317345" fill="#000000" />
                    <rect x="165.277802" y="101.536552" width="4.90317345" height="14.7095203" fill="#000000" />
                    <rect x="179.987335" y="101.536552" width="4.90317345" height="24.5158672" fill="#000000" />
                    <rect x="77.0206833" y="106.43972" width="14.7095203" height="4.90317345" fill="#000000" />
                    <rect x="96.6333771" y="106.43972" width="4.90317345" height="19.6126938" fill="#000000" />
                    <rect x="106.43972" y="106.43972" width="4.90317345" height="9.80634689" fill="#000000" />
                    <rect x="160.374634" y="106.43972" width="4.90317345" height="29.4190407" fill="#000000" />
                    <rect x="81.9238586" y="111.342896" width="4.90317345" height="49.0317345" fill="#000000" />
                    <rect x="91.7302017" y="111.342896" width="4.90317345" height="9.80634689" fill="#000000" />
                    <rect x="101.536552" y="111.342896" width="4.90317345" height="14.7095203" fill="#000000" />
                    <rect x="116.246071" y="111.342896" width="14.7095203" height="4.90317345" fill="#000000" />
                    <rect x="135.858765" y="111.342896" width="4.90317345" height="9.80634689" fill="#000000" />
                    <rect x="150.568283" y="111.342896" width="4.90317345" height="4.90317345" fill="#000000" />
                    <rect x="189.793671" y="111.342896" width="4.90317345" height="14.7095203" fill="#000000" />
                    <rect x="57.4079895" y="116.246071" width="4.90317345" height="19.6126938" fill="#000000" />
                    <rect x="62.3111649" y="116.246071" width="4.90317345" height="4.90317345" fill="#000000" />
                    <rect x="77.0206833" y="116.246071" width="4.90317345" height="4.90317345" fill="#000000" />
                    <rect x="86.8270264" y="116.246071" width="4.90317345" height="4.90317345" fill="#000000" />
                    <rect x="121.149246" y="116.246071" width="9.80634689" height="4.90317345" fill="#000000" />
                    <rect x="140.761932" y="116.246071" width="4.90317345" height="4.90317345" fill="#000000" />
                    <rect x="155.471466" y="116.246071" width="4.90317345" height="78.4507751" fill="#000000" />
                    <rect x="184.890503" y="116.246071" width="4.90317345" height="4.90317345" fill="#000000" />
                    <rect x="194.696838" y="116.246071" width="4.90317345" height="9.80634689" fill="#000000" />
                    <rect x="72.1175079" y="121.149246" width="4.90317345" height="9.80634689" fill="#000000" />
                    <rect x="111.342896" y="121.149246" width="9.80634689" height="9.80634689" fill="#000000" />
                    <rect x="126.052422" y="121.149246" width="9.80634689" height="4.90317345" fill="#000000" />
                    <rect x="150.568283" y="121.149246" width="4.90317345" height="4.90317345" fill="#000000" />
                    <rect x="165.277802" y="121.149246" width="4.90317345" height="4.90317345" fill="#000000" />
                    <rect x="175.084137" y="121.149246" width="4.90317345" height="4.90317345" fill="#000000" />
                    <rect x="86.8270264" y="126.052422" width="4.90317345" height="4.90317345" fill="#000000" />
                    <rect x="121.149246" y="126.052422" width="4.90317345" height="4.90317345" fill="#000000" />
                    <rect x="130.955597" y="126.052422" width="4.90317345" height="9.80634689" fill="#000000" />
                    <rect x="140.761932" y="126.052422" width="9.80634689" height="4.90317345" fill="#000000" />
                    <rect x="170.180969" y="126.052422" width="4.90317345" height="4.90317345" fill="#000000" />
                    <rect x="67.2143402" y="130.955597" width="4.90317345" height="4.90317345" fill="#000000" />
                    <rect x="96.6333771" y="130.955597" width="9.80634689" height="4.90317345" fill="#000000" />
                    <rect x="116.246071" y="130.955597" width="4.90317345" height="14.7095203" fill="#000000" />
                    <rect x="126.052422" y="130.955597" width="4.90317345" height="9.80634689" fill="#000000" />
                    <rect x="135.858765" y="130.955597" width="4.90317345" height="9.80634689" fill="#000000" />
                    <rect x="145.6651" y="130.955597" width="4.90317345" height="9.80634689" fill="#000000" />
                    <rect x="165.277802" y="130.955597" width="4.90317345" height="4.90317345" fill="#000000" />
                    <rect x="175.084137" y="130.955597" width="9.80634689" height="4.90317345" fill="#000000" />
                    <rect x="189.793671" y="130.955597" width="4.90317345" height="4.90317345" fill="#000000" />
                    <rect x="86.8270264" y="135.858765" width="4.90317345" height="4.90317345" fill="#000000" />
                    <rect x="101.536552" y="135.858765" width="9.80634689" height="4.90317345" fill="#000000" />
                    <rect x="121.149246" y="135.858765" width="4.90317345" height="4.90317345" fill="#000000" />
                    <rect x="140.761932" y="135.858765" width="4.90317345" height="4.90317345" fill="#000000" />
                    <rect x="179.987335" y="135.858765" width="9.80634689" height="4.90317345" fill="#000000" />
                    <rect x="57.4079895" y="140.761932" width="4.90317345" height="19.6126938" fill="#000000" />
                    <rect x="111.342896" y="140.761932" width="4.90317345" height="29.4190407" fill="#000000" />
                    <rect x="130.955597" y="140.761932" width="4.90317345" height="19.6126938" fill="#000000" />
                    <rect x="150.568283" y="140.761932" width="4.90317345" height="4.90317345" fill="#000000" />
                    <rect x="160.374634" y="140.761932" width="19.6126938" height="4.90317345" fill="#000000" />
                    <rect x="189.793671" y="140.761932" width="9.80634689" height="4.90317345" fill="#000000" />
                    <rect x="67.2143402" y="145.6651" width="9.80634689" height="4.90317345" fill="#000000" />
                    <rect x="86.8270264" y="145.6651" width="14.7095203" height="4.90317345" fill="#000000" />
                    <rect x="106.43972" y="145.6651" width="4.90317345" height="9.80634689" fill="#000000" />
                    <rect x="121.149246" y="145.6651" width="9.80634689" height="9.80634689" fill="#000000" />
                    <rect x="135.858765" y="145.6651" width="4.90317345" height="4.90317345" fill="#000000" />
                    <rect x="145.6651" y="145.6651" width="4.90317345" height="9.80634689" fill="#000000" />
                    <rect x="165.277802" y="145.6651" width="9.80634689" height="14.7095203" fill="#000000" />
                    <rect x="179.987335" y="145.6651" width="4.90317345" height="19.6126938" fill="#000000" />
                    <rect x="184.890503" y="145.6651" width="4.90317345" height="4.90317345" fill="#000000" />
                    <rect x="77.0206833" y="150.568283" width="4.90317345" height="4.90317345" fill="#000000" />
                    <rect x="96.6333771" y="150.568283" width="4.90317345" height="4.90317345" fill="#000000" />
                    <rect x="116.246071" y="150.568283" width="4.90317345" height="4.90317345" fill="#000000" />
                    <rect x="189.793671" y="150.568283" width="9.80634689" height="4.90317345" fill="#000000" />
                    <rect x="67.2143402" y="155.471466" width="9.80634689" height="4.90317345" fill="#000000" />
                    <rect x="86.8270264" y="155.471466" width="4.90317345" height="4.90317345" fill="#000000" />
                    <rect x="101.536552" y="155.471466" width="4.90317345" height="4.90317345" fill="#000000" />
                    <rect x="126.052422" y="155.471466" width="4.90317345" height="4.90317345" fill="#000000" />
                    <rect x="140.761932" y="155.471466" width="4.90317345" height="4.90317345" fill="#000000" />
                    <rect x="160.374634" y="155.471466" width="4.90317345" height="4.90317345" fill="#000000" />
                    <rect x="175.084137" y="155.471466" width="4.90317345" height="24.5158672" fill="#000000" />
                    <rect x="184.890503" y="155.471466" width="4.90317345" height="4.90317345" fill="#000000" />
                    <rect x="194.696838" y="155.471466" width="4.90317345" height="9.80634689" fill="#000000" />
                    <rect x="96.6333771" y="160.374634" width="4.90317345" height="34.3222122" fill="#000000" />
                    <rect x="116.246071" y="160.374634" width="9.80634689" height="4.90317345" fill="#000000" />
                    <rect x="145.6651" y="160.374634" width="4.90317345" height="9.80634689" fill="#000000" />
                    <rect x="57.4079895" y="165.277802" width="34.3222122" height="4.90317345" fill="#000000" />
                    <rect x="106.43972" y="165.277802" width="4.90317345" height="9.80634689" fill="#000000" />
                    <rect x="121.149246" y="165.277802" width="19.6126938" height="9.80634689" fill="#000000" />
                    <rect x="140.761932" y="165.277802" width="4.90317345" height="4.90317345" fill="#000000" />
                    <rect x="150.568283" y="165.277802" width="4.90317345" height="9.80634689" fill="#000000" />
                    <rect x="165.277802" y="165.277802" width="4.90317345" height="4.90317345" fill="#000000" />
                    <rect x="57.4079895" y="170.180969" width="4.90317345" height="29.4190407" fill="#000000" />
                    <rect x="86.8270264" y="170.180969" width="4.90317345" height="29.4190407" fill="#000000" />
                    <rect x="101.536552" y="170.180969" width="4.90317345" height="4.90317345" fill="#000000" />
                    <rect x="179.987335" y="170.180969" width="4.90317345" height="14.7095203" fill="#000000" />
                    <rect x="189.793671" y="170.180969" width="9.80634689" height="4.90317345" fill="#000000" />
                    <rect x="67.2143402" y="175.084137" width="14.7095203" height="14.7095203" fill="#000000" />
                    <rect x="111.342896" y="175.084137" width="4.90317345" height="4.90317345" fill="#000000" />
                    <rect x="121.149246" y="175.084137" width="4.90317345" height="4.90317345" fill="#000000" />
                    <rect x="130.955597" y="175.084137" width="4.90317345" height="9.80634689" fill="#000000" />
                    <rect x="145.6651" y="175.084137" width="4.90317345" height="9.80634689" fill="#000000" />
                    <rect x="160.374634" y="175.084137" width="14.7095203" height="4.90317345" fill="#000000" />
                    <rect x="184.890503" y="175.084137" width="4.90317345" height="4.90317345" fill="#000000" />
                    <rect x="194.696838" y="175.084137" width="4.90317345" height="4.90317345" fill="#000000" />
                    <rect x="116.246071" y="179.987335" width="4.90317345" height="4.90317345" fill="#000000" />
                    <rect x="135.858765" y="179.987335" width="9.80634689" height="4.90317345" fill="#000000" />
                    <rect x="150.568283" y="179.987335" width="4.90317345" height="9.80634689" fill="#000000" />
                    <rect x="160.374634" y="179.987335" width="4.90317345" height="9.80634689" fill="#000000" />
                    <rect x="170.180969" y="179.987335" width="4.90317345" height="9.80634689" fill="#000000" />
                    <rect x="101.536552" y="184.890503" width="9.80634689" height="4.90317345" fill="#000000" />
                    <rect x="165.277802" y="184.890503" width="4.90317345" height="4.90317345" fill="#000000" />
                    <rect x="175.084137" y="184.890503" width="4.90317345" height="14.7095203" fill="#000000" />
                    <rect x="189.793671" y="184.890503" width="4.90317345" height="9.80634689" fill="#000000" />
                    <rect x="111.342896" y="189.793671" width="9.80634689" height="4.90317345" fill="#000000" />
                    <rect x="126.052422" y="189.793671" width="4.90317345" height="9.80634689" fill="#000000" />
                    <rect x="135.858765" y="189.793671" width="4.90317345" height="4.90317345" fill="#000000" />
                    <rect x="145.6651" y="189.793671" width="4.90317345" height="4.90317345" fill="#000000" />
                    <rect x="62.3111649" y="194.696838" width="24.5158672" height="4.90317345" fill="#000000" />
                    <rect x="111.342896" y="194.696838" width="4.90317345" height="4.90317345" fill="#000000" />
                    <rect x="140.761932" y="194.696838" width="4.90317345" height="4.90317345" fill="#000000" />
                    <rect x="150.568283" y="194.696838" width="4.90317345" height="4.90317345" fill="#000000" />
                    <rect x="160.374634" y="194.696838" width="4.90317345" height="4.90317345" fill="#000000" />
                    <rect x="184.890503" y="194.696838" width="4.90317345" height="4.90317345" fill="#000000" />
                  </g>
                </g>
                <g>
                  <defs>
                    <clipPath id="papercraft-clip-6" clipPathUnits="userSpaceOnUse">
                      <rect x="37.7952957" y="219.212708" width="680.314941" height="30.2362366" />
                    </clipPath>
                  </defs>
                  <g clip-path="url(#papercraft-clip-6)" />
                </g>
                <g>
                  <defs>
                    <clipPath id="papercraft-clip-7" clipPathUnits="userSpaceOnUse">
                      <rect x="37.7952957" y="249.448944" width="181.417419" height="181.417419" />
                    </clipPath>
                  </defs>
                  <g clip-path="url(#papercraft-clip-7)">
                    <rect x="37.7952957" y="249.448944" width="181.417419" height="181.417419" fill="#FFFFFF" />
                    <rect x="57.4079895" y="269.061646" width="34.3222122" height="4.90317345" fill="#000000" />
                    <rect x="96.6333771" y="269.061646" width="4.90317345" height="4.90317345" fill="#000000" />
                    <rect x="106.43972" y="269.061646" width="4.90317345" height="9.80634689" fill="#000000" />
                    <rect x="121.149246" y="269.061646" width="14.7095203" height="4.90317345" fill="#000000" />
                    <rect x="150.568283" y="269.061646" width="4.90317345" height="4.90317345" fill="#000000" />
                    <rect x="165.277802" y="269.061646" width="34.3222122" height="4.90317345" fill="#000000" />
                    <rect x="57.4079895" y="273.964813" width="4.90317345" height="29.4190407" fill="#000000" />
                    <rect x="86.8270264" y="273.964813" width="4.90317345" height="29.4190407" fill="#000000" />
                    <rect x="111.342896" y="273.964813" width="9.80634689" height="4.90317345" fill="#000000" />
                    <rect x="130.955597" y="273.964813" width="9.80634689" height="4.90317345" fill="#000000" />
                    <rect x="145.6651" y="273.964813" width="4.90317345" height="4.90317345" fill="#000000" />
                    <rect x="155.471466" y="273.964813" width="4.90317345" height="9.80634689" fill="#000000" />
                    <rect x="165.277802" y="273.964813" width="4.90317345" height="29.4190407" fill="#000000" />
                    <rect x="194.696838" y="273.964813" width="4.90317345" height="29.4190407" fill="#000000" />
                    <rect x="67.2143402" y="278.867981" width="14.7095203" height="14.7095203" fill="#000000" />
                    <rect x="101.536552" y="278.867981" width="4.90317345" height="4.90317345" fill="#000000" />
                    <rect x="116.246071" y="278.867981" width="9.80634689" height="4.90317345" fill="#000000" />
                    <rect x="150.568283" y="278.867981" width="4.90317345" height="14.7095203" fill="#000000" />
                    <rect x="175.084137" y="278.867981" width="14.7095203" height="14.7095203" fill="#000000" />
                    <rect x="106.43972" y="283.771149" width="4.90317345" height="24.5158672" fill="#000000" />
                    <rect x="126.052422" y="283.771149" width="4.90317345" height="4.90317345" fill="#000000" />
                    <rect x="140.761932" y="283.771149" width="4.90317345" height="4.90317345" fill="#000000" />
                    <rect x="96.6333771" y="288.674316" width="4.90317345" height="14.7095203" fill="#000000" />
                    <rect x="101.536552" y="288.674316" width="4.90317345" height="4.90317345" fill="#000000" />
                    <rect x="121.149246" y="288.674316" width="4.90317345" height="9.80634689" fill="#000000" />
                    <rect x="130.955597" y="288.674316" width="4.90317345" height="9.80634689" fill="#000000" />
                    <rect x="145.6651" y="288.674316" width="4.90317345" height="14.7095203" fill="#000000" />
                    <rect x="155.471466" y="288.674316" width="4.90317345" height="4.90317345" fill="#000000" />
                    <rect x="111.342896" y="293.577515" width="4.90317345" height="4.90317345" fill="#000000" />
                    <rect x="126.052422" y="293.577515" width="4.90317345" height="14.7095203" fill="#000000" />
                    <rect x="135.858765" y="293.577515" width="4.90317345" height="14.7095203" fill="#000000" />
                    <rect x="62.3111649" y="298.480682" width="24.5158672" height="4.90317345" fill="#000000" />
                    <rect x="116.246071" y="298.480682" width="4.90317345" height="4.90317345" fill="#000000" />
                    <rect x="155.471466" y="298.480682" width="4.90317345" height="4.90317345" fill="#000000" />
                    <rect x="170.180969" y="298.480682" width="24.5158672" height="4.90317345" fill="#000000" />
                    <rect x="101.536552" y="303.38385" width="4.90317345" height="4.90317345" fill="#000000" />
                    <rect x="121.149246" y="303.38385" width="4.90317345" height="9.80634689" fill="#000000" />
                    <rect x="130.955597" y="303.38385" width="4.90317345" height="19.6126938" fill="#000000" />
                    <rect x="62.3111649" y="308.287018" width="9.80634689" height="19.6126938" fill="#000000" />
                    <rect x="72.1175079" y="308.287018" width="24.5158672" height="4.90317345" fill="#000000" />
                    <rect x="111.342896" y="308.287018" width="9.80634689" height="4.90317345" fill="#000000" />
                    <rect x="140.761932" y="308.287018" width="14.7095203" height="4.90317345" fill="#000000" />
                    <rect x="170.180969" y="308.287018" width="4.90317345" height="24.5158672" fill="#000000" />
                    <rect x="175.084137" y="308.287018" width="4.90317345" height="9.80634689" fill="#000000" />
                    <rect x="194.696838" y="308.287018" width="4.90317345" height="9.80634689" fill="#000000" />
                    <rect x="91.7302017" y="313.190186" width="4.90317345" height="4.90317345" fill="#000000" />
                    <rect x="101.536552" y="313.190186" width="14.7095203" height="4.90317345" fill="#000000" />
                    <rect x="135.858765" y="313.190186" width="9.80634689" height="4.90317345" fill="#000000" />
                    <rect x="150.568283" y="313.190186" width="4.90317345" height="4.90317345" fill="#000000" />
                    <rect x="165.277802" y="313.190186" width="4.90317345" height="14.7095203" fill="#000000" />
                    <rect x="179.987335" y="313.190186" width="4.90317345" height="24.5158672" fill="#000000" />
                    <rect x="77.0206833" y="318.093384" width="14.7095203" height="4.90317345" fill="#000000" />
                    <rect x="96.6333771" y="318.093384" width="4.90317345" height="19.6126938" fill="#000000" />
                    <rect x="106.43972" y="318.093384" width="4.90317345" height="9.80634689" fill="#000000" />
                    <rect x="160.374634" y="318.093384" width="4.90317345" height="29.4190407" fill="#000000" />
                    <rect x="81.9238586" y="322.996552" width="4.90317345" height="49.0317345" fill="#000000" />
                    <rect x="91.7302017" y="322.996552" width="4.90317345" height="9.80634689" fill="#000000" />
                    <rect x="101.536552" y="322.996552" width="4.90317345" height="14.7095203" fill="#000000" />
                    <rect x="116.246071" y="322.996552" width="14.7095203" height="4.90317345" fill="#000000" />
                    <rect x="135.858765" y="322.996552" width="4.90317345" height="9.80634689" fill="#000000" />
                    <rect x="150.568283" y="322.996552" width="4.90317345" height="4.90317345" fill="#000000" />
                    <rect x="189.793671" y="322.996552" width="4.90317345" height="14.7095203" fill="#000000" />
                    <rect x="57.4079895" y="327.899719" width="4.90317345" height="19.6126938" fill="#000000" />
                    <rect x="62.3111649" y="327.899719" width="4.90317345" height="4.90317345" fill="#000000" />
                    <rect x="77.0206833" y="327.899719" width="4.90317345" height="4.90317345" fill="#000000" />
                    <rect x="86.8270264" y="327.899719" width="4.90317345" height="4.90317345" fill="#000000" />
                    <rect x="121.149246" y="327.899719" width="9.80634689" height="4.90317345" fill="#000000" />
                    <rect x="140.761932" y="327.899719" width="4.90317345" height="4.90317345" fill="#000000" />
                    <rect x="155.471466" y="327.899719" width="4.90317345" height="78.4507751" fill="#000000" />
                    <rect x="184.890503" y="327.899719" width="4.90317345" height="4.90317345" fill="#000000" />
                    <rect x="194.696838" y="327.899719" width="4.90317345" height="9.80634689" fill="#000000" />
                    <rect x="72.1175079" y="332.802887" width="4.90317345" height="9.80634689" fill="#000000" />
                    <rect x="111.342896" y="332.802887" width="9.80634689" height="9.80634689" fill="#000000" />
                    <rect x="126.052422" y="332.802887" width="9.80634689" height="4.90317345" fill="#000000" />
                    <rect x="150.568283" y="332.802887" width="4.90317345" height="4.90317345" fill="#000000" />
                    <rect x="165.277802" y="332.802887" width="4.90317345" height="4.90317345" fill="#000000" />
                    <rect x="175.084137" y="332.802887" width="4.90317345" height="4.90317345" fill="#000000" />
                    <rect x="86.8270264" y="337.706055" width="4.90317345" height="4.90317345" fill="#000000" />
                    <rect x="121.149246" y="337.706055" width="4.90317345" height="4.90317345" fill="#000000" />
                    <rect x="130.955597" y="337.706055" width="4.90317345" height="9.80634689" fill="#000000" />
                    <rect x="140.761932" y="337.706055" width="9.80634689" height="4.90317345" fill="#000000" />
                    <rect x="170.180969" y="337.706055" width="4.90317345" height="4.90317345" fill="#000000" />
                    <rect x="67.2143402" y="342.609253" width="4.90317345" height="4.90317345" fill="#000000" />
                    <rect x="96.6333771" y="342.609253" width="9.80634689" height="4.90317345" fill="#000000" />
                    <rect x="116.246071" y="342.609253" width="4.90317345" height="14.7095203" fill="#000000" />
                    <rect x="126.052422" y="342.609253" width="4.90317345" height="9.80634689" fill="#000000" />
                    <rect x="135.858765" y="342.609253" width="4.90317345" height="9.80634689" fill="#000000" />
                    <rect x="145.6651" y="342.609253" width="4.90317345" height="9.80634689" fill="#000000" />
                    <rect x="165.277802" y="342.609253" width="4.90317345" height="4.90317345" fill="#000000" />
                    <rect x="175.084137" y="342.609253" width="9.80634689" height="4.90317345" fill="#000000" />
                    <rect x="189.793671" y="342.609253" width="4.90317345" height="4.90317345" fill="#000000" />
                    <rect x="86.8270264" y="347.512421" width="4.90317345" height="4.90317345" fill="#000000" />
                    <rect x="101.536552" y="347.512421" width="9.80634689" height="4.90317345" fill="#000000" />
                    <rect x="121.149246" y="347.512421" width="4.90317345" height="4.90317345" fill="#000000" />
                    <rect x="140.761932" y="347.512421" width="4.90317345" height="4.90317345" fill="#000000" />
                    <rect x="179.987335" y="347.512421" width="9.80634689" height="4.90317345" fill="#000000" />
                    <rect x="57.4079895" y="352.415588" width="4.90317345" height="19.6126938" fill="#000000" />
                    <rect x="111.342896" y="352.415588" width="4.90317345" height="29.4190407" fill="#000000" />
                    <rect x="130.955597" y="352.415588" width="4.90317345" height="19.6126938" fill="#000000" />
                    <rect x="150.568283" y="352.415588" width="4.90317345" height="4.90317345" fill="#000000" />
                    <rect x="160.374634" y="352.415588" width="19.6126938" height="4.90317345" fill="#000000" />
                    <rect x="189.793671" y="352.415588" width="9.80634689" height="4.90317345" fill="#000000" />
                    <rect x="67.2143402" y="357.318756" width="9.80634689" height="4.90317345" fill="#000000" />
                    <rect x="86.8270264" y="357.318756" width="14.7095203" height="4.90317345" fill="#000000" />
                    <rect x="106.43972" y="357.318756" width="4.90317345" height="9.80634689" fill="#000000" />
                    <rect x="121.149246" y="357.318756" width="9.80634689" height="9.80634689" fill="#000000" />
                    <rect x="135.858765" y="357.318756" width="4.90317345" height="4.90317345" fill="#000000" />
                    <rect x="145.6651" y="357.318756" width="4.90317345" height="9.80634689" fill="#000000" />
                    <rect x="165.277802" y="357.318756" width="9.80634689" height="14.7095203" fill="#000000" />
                    <rect x="179.987335" y="357.318756" width="4.90317345" height="19.6126938" fill="#000000" />
                    <rect x="184.890503" y="357.318756" width="4.90317345" height="4.90317345" fill="#000000" />
                    <rect x="77.0206833" y="362.221924" width="4.90317345" height="4.90317345" fill="#000000" />
                    <rect x="96.6333771" y="362.221924" width="4.90317345" height="4.90317345" fill="#000000" />
                    <rect x="116.246071" y="362.221924" width="4.90317345" height="4.90317345" fill="#000000" />
                    <rect x="189.793671" y="362.221924" width="9.80634689" height="4.90317345" fill="#000000" />
                    <rect x="67.2143402" y="367.125122" width="9.80634689" height="4.90317345" fill="#000000" />
                    <rect x="86.8270264" y="367.125122" width="4.90317345" height="4.90317345" fill="#000000" />
                    <rect x="101.536552" y="367.125122" width="4.90317345" height="4.90317345" fill="#000000" />
                    <rect x="126.052422" y="367.125122" width="4.90317345" height="4.90317345" fill="#000000" />
                    <rect x="140.761932" y="367.125122" width="4.90317345" height="4.90317345" fill="#000000" />
                    <rect x="160.374634" y="367.125122" width="4.90317345" height="4.90317345" fill="#000000" />
                    <rect x="175.084137" y="367.125122" width="4.90317345" height="24.5158672" fill="#000000" />
                    <rect x="184.890503" y="367.125122" width="4.90317345" height="4.90317345" fill="#000000" />
                    <rect x="194.696838" y="367.125122" width="4.90317345" height="9.80634689" fill="#000000" />
                    <rect x="96.6333771" y="372.02829" width="4.90317345" height="34.3222122" fill="#000000" />
                    <rect x="116.246071" y="372.02829" width="9.80634689" height="4.90317345" fill="#000000" />
                    <rect x="145.6651" y="372.02829" width="4.90317345" height="9.80634689" fill="#000000" />
                    <rect x="57.4079895" y="376.931458" width="34.3222122" height="4.90317345" fill="#000000" />
                    <rect x="106.43972" y="376.931458" width="4.90317345" height="9.80634689" fill="#000000" />
                    <rect x="121.149246" y="376.931458" width="19.6126938" height="9.80634689" fill="#000000" />
                    <rect x="140.761932" y="376.931458" width="4.90317345" height="4.90317345" fill="#000000" />
                    <rect x="150.568283" y="376.931458" width="4.90317345" height="9.80634689" fill="#000000" />
                    <rect x="165.277802" y="376.931458" width="4.90317345" height="4.90317345" fill="#000000" />
                    <rect x="57.4079895" y="381.834625" width="4.90317345" height="29.4190407" fill="#000000" />
                    <rect x="86.8270264" y="381.834625" width="4.90317345" height="29.4190407" fill="#000000" />
                    <rect x="101.536552" y="381.834625" width="4.90317345" height="4.90317345" fill="#000000" />
                    <rect x="179.987335" y="381.834625" width="4.90317345" height="14.7095203" fill="#000000" />
                    <rect x="189.793671" y="381.834625" width="9.80634689" height="4.90317345" fill="#000000" />
                    <rect x="67.2143402" y="386.737793" width="14.7095203" height="14.7095203" fill="#000000" />
                    <rect x="111.342896" y="386.737793" width="4.90317345" height="4.90317345" fill="#000000" />
                    <rect x="121.149246" y="386.737793" width="4.90317345" height="4.90317345" fill="#000000" />
                    <rect x="130.955597" y="386.737793" width="4.90317345" height="9.80634689" fill="#000000" />
                    <rect x="145.6651" y="386.737793" width="4.90317345" height="9.80634689" fill="#000000" />
                    <rect x="160.374634" y="386.737793" width="14.7095203" height="4.90317345" fill="#000000" />
                    <rect x="184.890503" y="386.737793" width="4.90317345" height="4.90317345" fill="#000000" />
                    <rect x="194.696838" y="386.737793" width="4.90317345" height="4.90317345" fill="#000000" />
                    <rect x="116.246071" y="391.640991" width="4.90317345" height="4.90317345" fill="#000000" />
                    <rect x="135.858765" y="391.640991" width="9.80634689" height="4.90317345" fill="#000000" />
                    <rect x="150.568283" y="391.640991" width="4.90317345" height="9.80634689" fill="#000000" />
                    <rect x="160.374634" y="391.640991" width="4.90317345" height="9.80634689" fill="#000000" />
                    <rect x="170.180969" y="391.640991" width="4.90317345" height="9.80634689" fill="#000000" />
                    <rect x="101.536552" y="396.544128" width="9.80634689" height="4.90317345" fill="#000000" />
                    <rect x="165.277802" y="396.544128" width="4.90317345" height="4.90317345" fill="#000000" />
                    <rect x="175.084137" y="396.544128" width="4.90317345" height="14.7095203" fill="#000000" />
                    <rect x="189.793671" y="396.544128" width="4.90317345" height="9.80634689" fill="#000000" />
                    <rect x="111.342896" y="401.447327" width="9.80634689" height="4.90317345" fill="#000000" />
                    <rect x="126.052422" y="401.447327" width="4.90317345" height="9.80634689" fill="#000000" />
                    <rect x="135.858765" y="401.447327" width="4.90317345" height="4.90317345" fill="#000000" />
                    <rect x="145.6651" y="401.447327" width="4.90317345" height="4.90317345" fill="#000000" />
                    <rect x="62.3111649" y="406.350494" width="24.5158672" height="4.90317345" fill="#000000" />
                    <rect x="111.342896" y="406.350494" width="4.90317345" height="4.90317345" fill="#000000" />
                    <rect x="140.761932" y="406.350494" width="4.90317345" height="4.90317345" fill="#000000" />
                    <rect x="150.568283" y="406.350494" width="4.90317345" height="4.90317345" fill="#000000" />
                    <rect x="160.374634" y="406.350494" width="4.90317345" height="4.90317345" fill="#000000" />
                    <rect x="184.890503" y="406.350494" width="4.90317345" height="4.90317345" fill="#000000" />
                  </g>
                </g>
              </g>
            </g>
          </g>
          <g>
            <defs>
              <clipPath id="papercraft-clip-8" clipPathUnits="userSpaceOnUse">
                <rect x="37.7952957" y="529.13385" width="680.314941" height="0" />
              </clipPath>
            </defs>
            <g clip-path="url(#papercraft-clip-8)">
              <g />
            </g>
          </g>
        </g>
        <g>
          <g />
        </g>
        <g>
          <defs>
            <clipPath id="papercraft-clip-9" clipPathUnits="userSpaceOnUse">
              <rect x="0" y="0" width="755.905518" height="566.929138" />
            </clipPath>
          </defs>
          <g clip-path="url(#papercraft-clip-9)">
            <g />
          </g>
        </g>
      </g>
    </g>
  </g>
</svg>